<svg width="32" height="32" viewBox="0 0 32 32" fill="none" xmlns="http://www.w3.org/2000/svg">
<circle cx="16" cy="16" r="16" fill="#F2994A"/>
<path d="M17.0906 13.0186C17.0906 11.4085 15.765 10.0984 14.136 10.0984C12.507 10.0984 11.1814 11.4085 11.1814 13.0186C11.1814 14.6287 12.507 15.9389 14.136 15.9389C15.765 15.9389 17.0906 14.6287 17.0906 13.0186Z" fill="white"/>
<path d="M10 20.0273V21.8184H18.2729V20.0273C18.2729 17.7732 16.417 15.9389 14.1365 15.9389C11.8559 15.9389 10 17.7732 10 20.0273Z" fill="white"/>
<path d="M22.9995 21.1954C22.9995 19.5853 21.674 18.2751 20.0449 18.2751C19.7393 18.2751 19.4503 18.3344 19.1729 18.4199C19.3401 18.9297 19.454 19.4631 19.454 20.0273V21.8184H22.9995V21.1954Z" fill="white"/>
<path d="M22.4098 15.9389C22.4098 14.6505 21.3496 13.6027 20.0461 13.6027C18.7425 13.6027 17.6824 14.6505 17.6824 15.9389C17.6824 16.0133 17.6976 16.0836 17.7045 16.1561C18.2873 16.6811 18.7573 17.3219 19.0592 18.0549C19.3605 18.1928 19.6927 18.2751 20.0461 18.2751C21.3496 18.2751 22.4098 17.2273 22.4098 15.9389Z" fill="white"/>
</svg>
