<svg width="214" height="214" viewBox="0 0 214 214" fill="none" xmlns="http://www.w3.org/2000/svg">
<circle cx="107" cy="107" r="107" fill="#C6EFE5" fill-opacity="0.76"/>
<path d="M153.533 156.029C152.562 156.029 151.775 155.242 151.775 154.271V148.895C151.775 147.924 152.563 147.137 153.533 147.137C154.504 147.137 155.292 147.924 155.292 148.895V154.271C155.292 155.242 154.505 156.029 153.533 156.029Z" fill="#497090"/>
<path d="M156.721 147.898L154.722 149.995C154.075 150.673 152.993 150.673 152.347 149.995L150.347 147.898C150.056 147.593 149.893 147.187 149.893 146.766V137.921H157.175V146.766C157.175 147.187 157.013 147.593 156.721 147.898Z" fill="#5680A6"/>
<path d="M157.334 140.266H149.734C148.827 140.266 148.093 139.531 148.093 138.625V114.78L150.536 112.436H156.514L158.975 114.78V138.625C158.975 139.531 158.241 140.266 157.334 140.266Z" fill="#99E6FC"/>
<path d="M152.782 112.435V140.266H149.735C148.828 140.266 148.094 139.531 148.094 138.625V114.78L150.302 112.435H152.782Z" fill="#62DBFB"/>
<path d="M157.163 73.4122H149.904V65.423C149.904 64.5315 150.627 63.8088 151.518 63.8088H155.549C156.441 63.8088 157.163 64.5315 157.163 65.423V73.4122H157.163Z" fill="#0EBE7F"/>
<path d="M158.975 114.78H148.093V72.6823C148.093 71.7908 148.815 71.0681 149.707 71.0681H157.361C158.253 71.0681 158.975 71.7908 158.975 72.6823V114.78Z" fill="#5680A6"/>
<path d="M152.782 71.0675V114.78H148.094V72.7082C148.094 71.8019 148.828 71.0673 149.735 71.0673H152.782V71.0675Z" fill="#497090"/>
<path d="M166.242 101.975C165.271 101.975 164.484 101.188 164.484 100.217V80.1303H148.093C147.122 80.1303 146.335 79.3431 146.335 78.3722C146.335 77.4014 147.122 76.6141 148.093 76.6141H166.242C167.213 76.6141 168 77.4014 168 78.3722V100.217C168 101.188 167.213 101.975 166.242 101.975Z" fill="#99E6FC"/>
<path d="M142.17 56.9924V164.453C142.17 165.345 141.447 166.067 140.556 166.067H62.6142C61.7227 166.067 61 165.345 61 164.453V56.9924C61 56.1009 61.7227 55.3782 62.6142 55.3782H75.9973L80.7498 57.6842H122.42L127.173 55.3782H140.556C141.447 55.3782 142.17 56.1009 142.17 56.9924Z" fill="#FED2A4"/>
<path d="M127.173 55.3782V62.7591H75.9978V55.3782H80.7502L83.0224 57.6842H119.918L122.421 55.3782H127.173Z" fill="#FFBD86"/>
<path d="M134.791 64.3734V157.075C134.791 157.966 134.068 158.689 133.177 158.689H69.9925C69.101 158.689 68.3783 157.966 68.3783 157.075V64.3734C68.3783 63.4819 69.101 62.7592 69.9925 62.7592H133.177C134.068 62.7592 134.791 63.4819 134.791 64.3734Z" fill="#F2FBFF"/>
<path d="M127.173 62.7592V69.5736C127.173 70.4651 126.451 71.1878 125.559 71.1878H77.612C76.7205 71.1878 75.9978 70.4651 75.9978 69.5736V62.7592H127.173Z" fill="#DFF6FD"/>
<path d="M65.7513 55.3782V166.067H62.6142C61.7227 166.067 61 165.345 61 164.453V56.9924C61 56.1009 61.7227 55.3782 62.6142 55.3782H65.7513Z" fill="#FFBD86"/>
<path d="M73.1296 62.7592V158.689H69.9925C69.101 158.689 68.3783 157.966 68.3783 157.075V64.3734C68.3783 63.4819 69.101 62.7592 69.9925 62.7592H73.1296Z" fill="#DFF6FD"/>
<path d="M108.964 55.3792C108.964 51.3038 105.66 48 101.585 48C97.5096 48 94.2057 51.3038 94.2057 55.3792H80.7495V64.8223C80.7495 65.7138 81.4722 66.4365 82.3637 66.4365H120.806C121.697 66.4365 122.42 65.7138 122.42 64.8223V55.6098V55.3792H108.964Z" fill="#62DBFB"/>
<path d="M102.915 54.0073C103.649 54.7418 103.649 55.9328 102.915 56.6673C102.18 57.4018 100.989 57.4018 100.255 56.6673C99.5201 55.9328 99.5201 54.7418 100.255 54.0073C100.989 53.2729 102.18 53.2729 102.915 54.0073Z" fill="#5680A6"/>
<path d="M121.905 123.082H98.0986C97.1435 123.082 96.3691 122.308 96.3691 121.352C96.3691 120.397 97.1435 119.623 98.0986 119.623H121.905C122.86 119.623 123.634 120.397 123.634 121.352C123.634 122.308 122.86 123.082 121.905 123.082Z" fill="#5680A6"/>
<path d="M121.905 130.245H98.0986C97.1435 130.245 96.3691 129.471 96.3691 128.516C96.3691 127.56 97.1435 126.786 98.0986 126.786H121.905C122.86 126.786 123.634 127.56 123.634 128.516C123.634 129.471 122.86 130.245 121.905 130.245Z" fill="#5680A6"/>
<path d="M121.905 137.408H98.0986C97.1435 137.408 96.3691 136.634 96.3691 135.678C96.3691 134.723 97.1435 133.949 98.0986 133.949H121.905C122.86 133.949 123.634 134.723 123.634 135.678C123.634 136.634 122.86 137.408 121.905 137.408Z" fill="#5680A6"/>
<path d="M90.9343 123.082H80.1897C79.2346 123.082 78.4602 122.308 78.4602 121.352C78.4602 120.397 79.2346 119.623 80.1897 119.623H90.9343C91.8895 119.623 92.6638 120.397 92.6638 121.352C92.6638 122.308 91.8895 123.082 90.9343 123.082Z" fill="#5680A6"/>
<path d="M90.9355 130.245H80.1909C79.2358 130.245 78.4614 129.471 78.4614 128.516C78.4614 127.56 79.2358 126.786 80.1909 126.786H90.9355C91.8907 126.786 92.665 127.56 92.665 128.516C92.665 129.471 91.8907 130.245 90.9355 130.245Z" fill="#5680A6"/>
<path d="M90.9355 137.408H80.1909C79.2358 137.408 78.4614 136.634 78.4614 135.678C78.4614 134.723 79.2358 133.949 80.1909 133.949H90.9355C91.8907 133.949 92.665 134.723 92.665 135.678C92.665 136.634 91.8907 137.408 90.9355 137.408Z" fill="#5680A6"/>
<path d="M121.529 148.037H108.046C107.091 148.037 106.316 147.263 106.316 146.308C106.316 145.352 107.091 144.578 108.046 144.578H121.529C122.484 144.578 123.258 145.352 123.258 146.308C123.258 147.263 122.484 148.037 121.529 148.037Z" fill="#5680A6"/>
<path d="M101.678 110.601C111.566 110.601 119.581 102.585 119.581 92.6968C119.581 82.8088 111.566 74.793 101.678 74.793C91.7896 74.793 83.7738 82.8088 83.7738 92.6968C83.7738 102.585 91.7896 110.601 101.678 110.601Z" fill="#0EBE7F"/>
<path d="M110.809 89.1188H106.874C105.983 89.1188 105.26 88.3961 105.26 87.5046V83.5701C105.26 82.6786 104.537 81.9559 103.646 81.9559H99.7112C98.8197 81.9559 98.097 82.6786 98.097 83.5701V87.5046C98.097 88.3961 97.3743 89.1188 96.4828 89.1188H92.5483C91.6568 89.1188 90.9341 89.8415 90.9341 90.733V94.6675C90.9341 95.559 91.6568 96.2817 92.5483 96.2817H96.4828C97.3743 96.2817 98.097 97.0044 98.097 97.896V101.83C98.097 102.722 98.8197 103.445 99.7112 103.445H103.646C104.537 103.445 105.26 102.722 105.26 101.83V97.896C105.26 97.0044 105.983 96.2817 106.874 96.2817H110.809C111.7 96.2817 112.423 95.559 112.423 94.6675V90.733C112.423 89.8415 111.7 89.1188 110.809 89.1188Z" fill="#F2FBFF"/>
</svg>
